<svg xmlns="http://www.w3.org/2000/svg" width="555.71" height="35" viewBox="0 0 555.71 35"><rect class="svg__rect" x="0" y="0" width="115.31" height="35" fill="#EF4041"/><rect class="svg__rect" x="113.31" y="0" width="442.4" height="35" fill="#C1282D"/><path class="svg__text" d="M15.69 22L14.22 22L14.22 13.47L16.14 13.47L18.60 20.01L21.06 13.47L22.97 13.47L22.97 22L21.49 22L21.49 19.19L21.64 15.43L19.12 22L18.06 22L15.55 15.43L15.69 19.19L15.69 22ZM28.49 22L26.95 22L30.17 13.47L31.50 13.47L34.73 22L33.18 22L32.49 20.01L29.18 20.01L28.49 22ZM30.83 15.28L29.60 18.82L32.07 18.82L30.83 15.28ZM41.14 22L38.69 22L38.69 13.47L41.21 13.47Q42.34 13.47 43.21 13.97Q44.09 14.48 44.57 15.40Q45.05 16.33 45.05 17.52L45.05 17.52L45.05 17.95Q45.05 19.16 44.57 20.08Q44.08 21.00 43.19 21.50Q42.30 22 41.14 22L41.14 22ZM40.17 14.66L40.17 20.82L41.14 20.82Q42.30 20.82 42.93 20.09Q43.55 19.36 43.56 17.99L43.56 17.99L43.56 17.52Q43.56 16.13 42.96 15.40Q42.35 14.66 41.21 14.66L41.21 14.66L40.17 14.66ZM55.09 22L49.51 22L49.51 13.47L55.05 13.47L55.05 14.66L51.00 14.66L51.00 17.02L54.50 17.02L54.50 18.19L51.00 18.19L51.00 20.82L55.09 20.82L55.09 22ZM66.65 22L64.68 13.47L66.15 13.47L67.47 19.88L69.10 13.47L70.34 13.47L71.96 19.89L73.27 13.47L74.74 13.47L72.77 22L71.35 22L69.73 15.77L68.07 22L66.65 22ZM80.38 22L78.90 22L78.90 13.47L80.38 13.47L80.38 22ZM86.87 14.66L84.23 14.66L84.23 13.47L91.00 13.47L91.00 14.66L88.34 14.66L88.34 22L86.87 22L86.87 14.66ZM96.24 22L94.75 22L94.75 13.47L96.24 13.47L96.24 17.02L100.05 17.02L100.05 13.47L101.53 13.47L101.53 22L100.05 22L100.05 18.21L96.24 18.21L96.24 22Z" fill="#FFFFFF"/><path class="svg__text" d="M129.88 22L127.50 22L127.50 13.60L131.34 13.60Q132.48 13.60 133.32 13.98Q134.16 14.35 134.62 15.06Q135.07 15.76 135.07 16.71L135.07 16.71Q135.07 17.62 134.65 18.30Q134.22 18.98 133.43 19.36L133.43 19.36L135.24 22L132.70 22L131.17 19.77L129.88 19.77L129.88 22ZM129.88 15.47L129.88 17.93L131.20 17.93Q131.93 17.93 132.30 17.61Q132.67 17.29 132.67 16.71L132.67 16.71Q132.67 16.12 132.30 15.79Q131.93 15.47 131.20 15.47L131.20 15.47L129.88 15.47ZM146.61 22L139.86 22L139.86 13.60L146.45 13.60L146.45 15.44L142.22 15.44L142.22 16.85L145.95 16.85L145.95 18.63L142.22 18.63L142.22 20.17L146.61 20.17L146.61 22ZM152.83 22L150.40 22L154.11 13.60L156.45 13.60L160.17 22L157.70 22L157.04 20.37L153.49 20.37L152.83 22ZM155.27 15.93L154.18 18.61L156.34 18.61L155.27 15.93ZM163.90 17.80L163.90 17.80Q163.90 16.54 164.49 15.54Q165.09 14.55 166.14 13.99Q167.20 13.43 168.51 13.43L168.51 13.43Q169.67 13.43 170.59 13.84Q171.51 14.25 172.13 15.02L172.13 15.02L170.62 16.39Q169.80 15.40 168.64 15.40L168.64 15.40Q167.95 15.40 167.42 15.70Q166.88 16 166.59 16.54Q166.29 17.09 166.29 17.80L166.29 17.80Q166.29 18.51 166.59 19.05Q166.88 19.60 167.42 19.90Q167.95 20.20 168.64 20.20L168.64 20.20Q169.80 20.20 170.62 19.22L170.62 19.22L172.13 20.58Q171.52 21.35 170.59 21.76Q169.67 22.17 168.51 22.17L168.51 22.17Q167.20 22.17 166.14 21.61Q165.09 21.05 164.49 20.05Q163.90 19.06 163.90 17.80ZM178.46 15.48L175.87 15.48L175.87 13.60L183.40 13.60L183.40 15.48L180.83 15.48L180.83 22L178.46 22L178.46 15.48ZM187.26 20.75L187.26 20.75Q187.26 20.15 187.65 19.78Q188.03 19.41 188.63 19.41L188.63 19.41Q189.22 19.41 189.60 19.78Q189.99 20.15 189.99 20.75L189.99 20.75Q189.99 21.03 189.92 21.30Q189.85 21.58 189.60 22.13L189.60 22.13L188.84 23.89L187.41 23.89L187.97 21.93Q187.64 21.77 187.45 21.47Q187.26 21.16 187.26 20.75ZM203.41 15.48L200.83 15.48L200.83 13.60L208.35 13.60L208.35 15.48L205.78 15.48L205.78 22L203.41 22L203.41 15.48ZM214.85 18.95L211.64 13.60L214.15 13.60L216.14 16.94L218.14 13.60L220.44 13.60L217.22 18.99L217.22 22L214.85 22L214.85 18.95ZM226.90 22L224.52 22L224.52 13.60L228.37 13.60Q229.50 13.60 230.34 13.98Q231.19 14.35 231.64 15.06Q232.10 15.76 232.10 16.71L232.10 16.71Q232.10 17.66 231.64 18.35Q231.19 19.05 230.34 19.42Q229.50 19.80 228.37 19.80L228.37 19.80L226.90 19.80L226.90 22ZM226.90 15.47L226.90 17.93L228.22 17.93Q228.95 17.93 229.33 17.61Q229.70 17.29 229.70 16.71L229.70 16.71Q229.70 16.12 229.33 15.80Q228.95 15.47 228.22 15.47L228.22 15.47L226.90 15.47ZM243.60 22L236.85 22L236.85 13.60L243.44 13.60L243.44 15.44L239.21 15.44L239.21 16.85L242.94 16.85L242.94 18.63L239.21 18.63L239.21 20.17L243.60 20.17L243.60 22ZM247.81 21.24L247.81 21.24L248.59 19.49Q249.16 19.86 249.90 20.09Q250.64 20.32 251.37 20.32L251.37 20.32Q252.73 20.32 252.74 19.64L252.74 19.64Q252.74 19.28 252.35 19.11Q251.96 18.93 251.09 18.74L251.09 18.74Q250.14 18.53 249.50 18.30Q248.87 18.06 248.41 17.55Q247.96 17.03 247.96 16.16L247.96 16.16Q247.96 15.39 248.38 14.77Q248.80 14.15 249.63 13.79Q250.47 13.43 251.68 13.43L251.68 13.43Q252.50 13.43 253.31 13.62Q254.11 13.80 254.73 14.17L254.73 14.17L254.00 15.93Q252.79 15.28 251.66 15.28L251.66 15.28Q250.95 15.28 250.63 15.49Q250.31 15.70 250.31 16.04L250.31 16.04Q250.31 16.37 250.69 16.54Q251.08 16.71 251.93 16.89L251.93 16.89Q252.89 17.10 253.52 17.33Q254.15 17.56 254.61 18.07Q255.07 18.58 255.07 19.46L255.07 19.46Q255.07 20.21 254.66 20.83Q254.24 21.44 253.40 21.80Q252.55 22.17 251.35 22.17L251.35 22.17Q250.33 22.17 249.37 21.92Q248.41 21.67 247.81 21.24ZM259.22 17.80L259.22 17.80Q259.22 16.54 259.82 15.54Q260.42 14.55 261.47 13.99Q262.52 13.43 263.84 13.43L263.84 13.43Q264.99 13.43 265.92 13.84Q266.84 14.25 267.45 15.02L267.45 15.02L265.94 16.39Q265.13 15.40 263.96 15.40L263.96 15.40Q263.28 15.40 262.74 15.70Q262.21 16 261.91 16.54Q261.62 17.09 261.62 17.80L261.62 17.80Q261.62 18.51 261.91 19.05Q262.21 19.60 262.74 19.90Q263.28 20.20 263.96 20.20L263.96 20.20Q265.13 20.20 265.94 19.22L265.94 19.22L267.45 20.58Q266.85 21.35 265.92 21.76Q264.99 22.17 263.84 22.17L263.84 22.17Q262.52 22.17 261.47 21.61Q260.42 21.05 259.82 20.05Q259.22 19.06 259.22 17.80ZM274.37 22L271.99 22L271.99 13.60L275.83 13.60Q276.98 13.60 277.81 13.98Q278.65 14.35 279.11 15.06Q279.57 15.76 279.57 16.71L279.57 16.71Q279.57 17.62 279.14 18.30Q278.71 18.98 277.92 19.36L277.92 19.36L279.73 22L277.19 22L275.66 19.77L274.37 19.77L274.37 22ZM274.37 15.47L274.37 17.93L275.69 17.93Q276.42 17.93 276.79 17.61Q277.16 17.29 277.16 16.71L277.16 16.71Q277.16 16.12 276.79 15.79Q276.42 15.47 275.69 15.47L275.69 15.47L274.37 15.47ZM286.73 22L284.35 22L284.35 13.60L286.73 13.60L286.73 22ZM294.29 22L291.91 22L291.91 13.60L295.75 13.60Q296.89 13.60 297.73 13.98Q298.57 14.35 299.03 15.06Q299.48 15.76 299.48 16.71L299.48 16.71Q299.48 17.66 299.03 18.35Q298.57 19.05 297.73 19.42Q296.89 19.80 295.75 19.80L295.75 19.80L294.29 19.80L294.29 22ZM294.29 15.47L294.29 17.93L295.60 17.93Q296.34 17.93 296.71 17.61Q297.08 17.29 297.08 16.71L297.08 16.71Q297.08 16.12 296.71 15.80Q296.34 15.47 295.60 15.47L295.60 15.47L294.29 15.47ZM306.03 15.48L303.44 15.48L303.44 13.60L310.97 13.60L310.97 15.48L308.40 15.48L308.40 22L306.03 22L306.03 15.48ZM314.83 20.75L314.83 20.75Q314.83 20.15 315.22 19.78Q315.60 19.41 316.20 19.41L316.20 19.41Q316.79 19.41 317.17 19.78Q317.56 20.15 317.56 20.75L317.56 20.75Q317.56 21.03 317.49 21.30Q317.42 21.58 317.17 22.13L317.17 22.13L316.41 23.89L314.98 23.89L315.54 21.93Q315.21 21.77 315.02 21.47Q314.83 21.16 314.83 20.75ZM331.52 22L329.19 22L329.19 13.60L331.15 13.60L334.86 18.07L334.86 13.60L337.18 13.60L337.18 22L335.23 22L331.52 17.52L331.52 22ZM349.09 22L342.34 22L342.34 13.60L348.94 13.60L348.94 15.44L344.70 15.44L344.70 16.85L348.43 16.85L348.43 18.63L344.70 18.63L344.70 20.17L349.09 20.17L349.09 22ZM355.74 22L353.03 22L356.09 17.75L353.16 13.60L355.84 13.60L357.52 16.02L359.17 13.60L361.74 13.60L358.81 17.66L361.94 22L359.20 22L357.46 19.40L355.74 22ZM368.01 15.48L365.43 15.48L365.43 13.60L372.95 13.60L372.95 15.48L370.39 15.48L370.39 22L368.01 22L368.01 15.48ZM376.81 20.75L376.81 20.75Q376.81 20.15 377.20 19.78Q377.59 19.41 378.18 19.41L378.18 19.41Q378.78 19.41 379.16 19.78Q379.54 20.15 379.54 20.75L379.54 20.75Q379.54 21.34 379.16 21.72Q378.77 22.11 378.18 22.11L378.18 22.11Q377.60 22.11 377.20 21.72Q376.81 21.34 376.81 20.75ZM383.12 20.93L383.12 20.93L384.42 19.40Q385.09 20.27 385.86 20.27L385.86 20.27Q385.87 20.27 385.87 20.27L385.87 20.27Q386.39 20.27 386.66 19.96Q386.93 19.65 386.93 19.05L386.93 19.05L386.93 15.44L384.03 15.44L384.03 13.60L389.28 13.60L389.28 18.91Q389.28 20.54 388.46 21.36Q387.64 22.17 386.04 22.17L386.04 22.17Q385.12 22.17 384.36 21.85Q383.61 21.53 383.12 20.93ZM393.78 21.24L393.78 21.24L394.56 19.49Q395.12 19.86 395.87 20.09Q396.61 20.32 397.33 20.32L397.33 20.32Q398.70 20.32 398.70 19.64L398.70 19.64Q398.70 19.28 398.32 19.11Q397.93 18.93 397.06 18.74L397.06 18.74Q396.11 18.53 395.47 18.30Q394.84 18.06 394.38 17.55Q393.93 17.03 393.93 16.16L393.93 16.16Q393.93 15.39 394.35 14.77Q394.77 14.15 395.60 13.79Q396.44 13.43 397.64 13.43L397.64 13.43Q398.47 13.43 399.28 13.62Q400.08 13.80 400.70 14.17L400.70 14.17L399.96 15.93Q398.76 15.28 397.63 15.28L397.63 15.28Q396.92 15.28 396.60 15.49Q396.28 15.70 396.28 16.04L396.28 16.04Q396.28 16.37 396.66 16.54Q397.05 16.71 397.90 16.89L397.90 16.89Q398.86 17.10 399.49 17.33Q400.12 17.56 400.58 18.07Q401.04 18.58 401.04 19.46L401.04 19.46Q401.04 20.21 400.62 20.83Q400.20 21.44 399.36 21.80Q398.52 22.17 397.32 22.17L397.32 22.17Q396.30 22.17 395.34 21.92Q394.38 21.67 393.78 21.24ZM405.12 20.75L405.12 20.75Q405.12 20.15 405.50 19.78Q405.88 19.41 406.49 19.41L406.49 19.41Q407.07 19.41 407.46 19.78Q407.84 20.15 407.84 20.75L407.84 20.75Q407.84 21.03 407.77 21.30Q407.70 21.58 407.45 22.13L407.45 22.13L406.69 23.89L405.26 23.89L405.82 21.93Q405.49 21.77 405.30 21.47Q405.12 21.16 405.12 20.75ZM421.26 15.48L418.68 15.48L418.68 13.60L426.20 13.60L426.20 15.48L423.64 15.48L423.64 22L421.26 22L421.26 15.48ZM431.99 22L429.57 22L433.28 13.60L435.62 13.60L439.33 22L436.87 22L436.20 20.37L432.65 20.37L431.99 22ZM434.43 15.93L433.35 18.61L435.51 18.61L434.43 15.93ZM445.87 22L443.49 22L443.49 13.60L445.87 13.60L445.87 22ZM457.43 22L451.04 22L451.04 13.60L453.42 13.60L453.42 20.11L457.43 20.11L457.43 22ZM463.93 22L461.20 13.60L463.65 13.60L465.34 18.96L467.11 13.60L469.30 13.60L470.99 19.01L472.76 13.60L475.02 13.60L472.30 22L469.76 22L468.15 16.89L466.47 22L463.93 22ZM481.91 22L479.54 22L479.54 13.60L481.91 13.60L481.91 22ZM489.42 22L487.09 22L487.09 13.60L489.04 13.60L492.75 18.07L492.75 13.60L495.08 13.60L495.08 22L493.13 22L489.42 17.52L489.42 22ZM504.21 22L500.24 22L500.24 13.60L504.21 13.60Q505.60 13.60 506.66 14.12Q507.73 14.63 508.32 15.58Q508.91 16.53 508.91 17.80L508.91 17.80Q508.91 19.07 508.32 20.02Q507.73 20.97 506.66 21.48Q505.60 22 504.21 22L504.21 22ZM502.62 15.50L502.62 20.10L504.12 20.10Q505.20 20.10 505.85 19.49Q506.51 18.88 506.51 17.80L506.51 17.80Q506.51 16.72 505.85 16.11Q505.20 15.50 504.12 15.50L504.12 15.50L502.62 15.50ZM513.21 17.80L513.21 17.80Q513.21 16.54 513.81 15.54Q514.40 14.55 515.46 13.99Q516.51 13.43 517.83 13.43L517.83 13.43Q518.98 13.43 519.90 13.84Q520.83 14.25 521.44 15.02L521.44 15.02L519.93 16.39Q519.12 15.40 517.95 15.40L517.95 15.40Q517.26 15.40 516.73 15.70Q516.20 16 515.90 16.54Q515.61 17.09 515.61 17.80L515.61 17.80Q515.61 18.51 515.90 19.05Q516.20 19.60 516.73 19.90Q517.26 20.20 517.95 20.20L517.95 20.20Q519.12 20.20 519.93 19.22L519.93 19.22L521.44 20.58Q520.83 21.35 519.91 21.76Q518.98 22.17 517.83 22.17L517.83 22.17Q516.51 22.17 515.46 21.61Q514.40 21.05 513.81 20.05Q513.21 19.06 513.21 17.80ZM525.39 21.24L525.39 21.24L526.17 19.49Q526.73 19.86 527.48 20.09Q528.22 20.32 528.94 20.32L528.94 20.32Q530.31 20.32 530.31 19.64L530.31 19.64Q530.31 19.28 529.92 19.11Q529.53 18.93 528.67 18.74L528.67 18.74Q527.72 18.53 527.08 18.30Q526.45 18.06 525.99 17.55Q525.54 17.03 525.54 16.16L525.54 16.16Q525.54 15.39 525.96 14.77Q526.37 14.15 527.21 13.79Q528.04 13.43 529.25 13.43L529.25 13.43Q530.08 13.43 530.88 13.62Q531.69 13.80 532.30 14.17L532.30 14.17L531.57 15.93Q530.37 15.28 529.24 15.28L529.24 15.28Q528.53 15.28 528.21 15.49Q527.89 15.70 527.89 16.04L527.89 16.04Q527.89 16.37 528.27 16.54Q528.65 16.71 529.50 16.89L529.50 16.89Q530.46 17.10 531.09 17.33Q531.72 17.56 532.19 18.07Q532.65 18.58 532.65 19.46L532.65 19.46Q532.65 20.21 532.23 20.83Q531.81 21.44 530.97 21.80Q530.13 22.17 528.93 22.17L528.93 22.17Q527.91 22.17 526.95 21.92Q525.99 21.67 525.39 21.24ZM536.64 21.24L536.64 21.24L537.42 19.49Q537.98 19.86 538.73 20.09Q539.47 20.32 540.19 20.32L540.19 20.32Q541.56 20.32 541.56 19.64L541.56 19.64Q541.56 19.28 541.17 19.11Q540.78 18.93 539.92 18.74L539.92 18.74Q538.97 18.53 538.33 18.30Q537.70 18.06 537.24 17.55Q536.79 17.03 536.79 16.16L536.79 16.16Q536.79 15.39 537.21 14.77Q537.62 14.15 538.46 13.79Q539.29 13.43 540.50 13.43L540.50 13.43Q541.33 13.43 542.13 13.62Q542.94 13.80 543.55 14.17L543.55 14.17L542.82 15.93Q541.62 15.28 540.49 15.28L540.49 15.28Q539.78 15.28 539.46 15.49Q539.14 15.70 539.14 16.04L539.14 16.04Q539.14 16.37 539.52 16.54Q539.90 16.71 540.75 16.89L540.75 16.89Q541.71 17.10 542.34 17.33Q542.97 17.56 543.44 18.07Q543.90 18.58 543.90 19.46L543.90 19.46Q543.90 20.21 543.48 20.83Q543.06 21.44 542.22 21.80Q541.38 22.17 540.18 22.17L540.18 22.17Q539.16 22.17 538.20 21.92Q537.24 21.67 536.64 21.24Z" fill="#FFFFFF"/></svg>