<svg xmlns="http://www.w3.org/2000/svg" width="583.72" height="35" viewBox="0 0 583.72 35"><rect class="svg__rect" x="0" y="0" width="115.31" height="35" fill="#EF4041"/><rect class="svg__rect" x="113.31" y="0" width="470.40999999999997" height="35" fill="#C1282D"/><path class="svg__text" d="M15.69 22L14.22 22L14.22 13.47L16.14 13.47L18.60 20.01L21.06 13.47L22.97 13.47L22.97 22L21.49 22L21.49 19.19L21.64 15.43L19.12 22L18.06 22L15.55 15.43L15.69 19.19L15.69 22ZM28.49 22L26.95 22L30.17 13.47L31.50 13.47L34.73 22L33.18 22L32.49 20.01L29.18 20.01L28.49 22ZM30.83 15.28L29.60 18.82L32.07 18.82L30.83 15.28ZM41.14 22L38.69 22L38.69 13.47L41.21 13.47Q42.34 13.47 43.21 13.97Q44.09 14.48 44.57 15.40Q45.05 16.33 45.05 17.52L45.05 17.52L45.05 17.95Q45.05 19.16 44.57 20.08Q44.08 21.00 43.19 21.50Q42.30 22 41.14 22L41.14 22ZM40.17 14.66L40.17 20.82L41.14 20.82Q42.30 20.82 42.93 20.09Q43.55 19.36 43.56 17.99L43.56 17.99L43.56 17.52Q43.56 16.13 42.96 15.40Q42.35 14.66 41.21 14.66L41.21 14.66L40.17 14.66ZM55.09 22L49.51 22L49.51 13.47L55.05 13.47L55.05 14.66L51.00 14.66L51.00 17.02L54.50 17.02L54.50 18.19L51.00 18.19L51.00 20.82L55.09 20.82L55.09 22ZM66.65 22L64.68 13.47L66.15 13.47L67.47 19.88L69.10 13.47L70.34 13.47L71.96 19.89L73.27 13.47L74.74 13.47L72.77 22L71.35 22L69.73 15.77L68.07 22L66.65 22ZM80.38 22L78.90 22L78.90 13.47L80.38 13.47L80.38 22ZM86.87 14.66L84.23 14.66L84.23 13.47L91.00 13.47L91.00 14.66L88.34 14.66L88.34 22L86.87 22L86.87 14.66ZM96.24 22L94.75 22L94.75 13.47L96.24 13.47L96.24 17.02L100.05 17.02L100.05 13.47L101.53 13.47L101.53 22L100.05 22L100.05 18.21L96.24 18.21L96.24 22Z" fill="#FFFFFF"/><path class="svg__text" d="M129.88 22L127.50 22L127.50 13.60L131.34 13.60Q132.48 13.60 133.32 13.98Q134.16 14.35 134.62 15.06Q135.07 15.76 135.07 16.71L135.07 16.71Q135.07 17.62 134.65 18.30Q134.22 18.98 133.43 19.36L133.43 19.36L135.24 22L132.70 22L131.17 19.77L129.88 19.77L129.88 22ZM129.88 15.47L129.88 17.93L131.20 17.93Q131.93 17.93 132.30 17.61Q132.67 17.29 132.67 16.71L132.67 16.71Q132.67 16.12 132.30 15.79Q131.93 15.47 131.20 15.47L131.20 15.47L129.88 15.47ZM146.61 22L139.86 22L139.86 13.60L146.45 13.60L146.45 15.44L142.22 15.44L142.22 16.85L145.95 16.85L145.95 18.63L142.22 18.63L142.22 20.17L146.61 20.17L146.61 22ZM152.83 22L150.40 22L154.11 13.60L156.45 13.60L160.17 22L157.70 22L157.04 20.37L153.49 20.37L152.83 22ZM155.27 15.93L154.18 18.61L156.34 18.61L155.27 15.93ZM163.90 17.80L163.90 17.80Q163.90 16.54 164.49 15.54Q165.09 14.55 166.14 13.99Q167.20 13.43 168.51 13.43L168.51 13.43Q169.67 13.43 170.59 13.84Q171.51 14.25 172.13 15.02L172.13 15.02L170.62 16.39Q169.80 15.40 168.64 15.40L168.64 15.40Q167.95 15.40 167.42 15.70Q166.88 16 166.59 16.54Q166.29 17.09 166.29 17.80L166.29 17.80Q166.29 18.51 166.59 19.05Q166.88 19.60 167.42 19.90Q167.95 20.20 168.64 20.20L168.64 20.20Q169.80 20.20 170.62 19.22L170.62 19.22L172.13 20.58Q171.52 21.35 170.59 21.76Q169.67 22.17 168.51 22.17L168.51 22.17Q167.20 22.17 166.14 21.61Q165.09 21.05 164.49 20.05Q163.90 19.06 163.90 17.80ZM178.46 15.48L175.87 15.48L175.87 13.60L183.40 13.60L183.40 15.48L180.83 15.48L180.83 22L178.46 22L178.46 15.48ZM187.26 20.75L187.26 20.75Q187.26 20.15 187.65 19.78Q188.03 19.41 188.63 19.41L188.63 19.41Q189.22 19.41 189.60 19.78Q189.99 20.15 189.99 20.75L189.99 20.75Q189.99 21.03 189.92 21.30Q189.85 21.58 189.60 22.13L189.60 22.13L188.84 23.89L187.41 23.89L187.97 21.93Q187.64 21.77 187.45 21.47Q187.26 21.16 187.26 20.75ZM203.41 15.48L200.83 15.48L200.83 13.60L208.35 13.60L208.35 15.48L205.78 15.48L205.78 22L203.41 22L203.41 15.48ZM214.85 18.95L211.64 13.60L214.15 13.60L216.14 16.94L218.14 13.60L220.44 13.60L217.22 18.99L217.22 22L214.85 22L214.85 18.95ZM226.90 22L224.52 22L224.52 13.60L228.37 13.60Q229.50 13.60 230.34 13.98Q231.19 14.35 231.64 15.06Q232.10 15.76 232.10 16.71L232.10 16.71Q232.10 17.66 231.64 18.35Q231.19 19.05 230.34 19.42Q229.50 19.80 228.37 19.80L228.37 19.80L226.90 19.80L226.90 22ZM226.90 15.47L226.90 17.93L228.22 17.93Q228.95 17.93 229.33 17.61Q229.70 17.29 229.70 16.71L229.70 16.71Q229.70 16.12 229.33 15.80Q228.95 15.47 228.22 15.47L228.22 15.47L226.90 15.47ZM236.27 21.24L236.27 21.24L237.04 19.49Q237.61 19.86 238.35 20.09Q239.10 20.32 239.82 20.32L239.82 20.32Q241.18 20.32 241.19 19.64L241.19 19.64Q241.19 19.28 240.80 19.11Q240.41 18.93 239.54 18.74L239.54 18.74Q238.59 18.53 237.96 18.30Q237.32 18.06 236.87 17.55Q236.41 17.03 236.41 16.16L236.41 16.16Q236.41 15.39 236.83 14.77Q237.25 14.15 238.08 13.79Q238.92 13.43 240.13 13.43L240.13 13.43Q240.95 13.43 241.76 13.62Q242.56 13.80 243.18 14.17L243.18 14.17L242.45 15.93Q241.25 15.28 240.12 15.28L240.12 15.28Q239.41 15.28 239.08 15.49Q238.76 15.70 238.76 16.04L238.76 16.04Q238.76 16.37 239.15 16.54Q239.53 16.71 240.38 16.89L240.38 16.89Q241.34 17.10 241.97 17.33Q242.60 17.56 243.06 18.07Q243.53 18.58 243.53 19.46L243.53 19.46Q243.53 20.21 243.11 20.83Q242.69 21.44 241.85 21.80Q241.01 22.17 239.80 22.17L239.80 22.17Q238.78 22.17 237.82 21.92Q236.86 21.67 236.27 21.24ZM247.67 17.80L247.67 17.80Q247.67 16.54 248.27 15.54Q248.87 14.55 249.92 13.99Q250.97 13.43 252.29 13.43L252.29 13.43Q253.45 13.43 254.37 13.84Q255.29 14.25 255.91 15.02L255.91 15.02L254.39 16.39Q253.58 15.40 252.41 15.40L252.41 15.40Q251.73 15.40 251.20 15.70Q250.66 16 250.37 16.54Q250.07 17.09 250.07 17.80L250.07 17.80Q250.07 18.51 250.37 19.05Q250.66 19.60 251.20 19.90Q251.73 20.20 252.41 20.20L252.41 20.20Q253.58 20.20 254.39 19.22L254.39 19.22L255.91 20.58Q255.30 21.35 254.37 21.76Q253.45 22.17 252.29 22.17L252.29 22.17Q250.97 22.17 249.92 21.61Q248.87 21.05 248.27 20.05Q247.67 19.06 247.67 17.80ZM262.82 22L260.44 22L260.44 13.60L264.29 13.60Q265.43 13.60 266.27 13.98Q267.10 14.35 267.56 15.06Q268.02 15.76 268.02 16.71L268.02 16.71Q268.02 17.62 267.59 18.30Q267.16 18.98 266.37 19.36L266.37 19.36L268.18 22L265.64 22L264.12 19.77L262.82 19.77L262.82 22ZM262.82 15.47L262.82 17.93L264.14 17.93Q264.87 17.93 265.24 17.61Q265.62 17.29 265.62 16.71L265.62 16.71Q265.62 16.12 265.24 15.79Q264.87 15.47 264.14 15.47L264.14 15.47L262.82 15.47ZM275.18 22L272.80 22L272.80 13.60L275.18 13.60L275.18 22ZM282.74 22L280.36 22L280.36 13.60L284.20 13.60Q285.34 13.60 286.18 13.98Q287.02 14.35 287.48 15.06Q287.93 15.76 287.93 16.71L287.93 16.71Q287.93 17.66 287.48 18.35Q287.02 19.05 286.18 19.42Q285.34 19.80 284.20 19.80L284.20 19.80L282.74 19.80L282.74 22ZM282.74 15.47L282.74 17.93L284.05 17.93Q284.79 17.93 285.16 17.61Q285.53 17.29 285.53 16.71L285.53 16.71Q285.53 16.12 285.16 15.80Q284.79 15.47 284.05 15.47L284.05 15.47L282.74 15.47ZM294.48 15.48L291.89 15.48L291.89 13.60L299.42 13.60L299.42 15.48L296.85 15.48L296.85 22L294.48 22L294.48 15.48ZM303.29 20.75L303.29 20.75Q303.29 20.15 303.67 19.78Q304.05 19.41 304.66 19.41L304.66 19.41Q305.24 19.41 305.63 19.78Q306.01 20.15 306.01 20.75L306.01 20.75Q306.01 21.03 305.94 21.30Q305.87 21.58 305.62 22.13L305.62 22.13L304.86 23.89L303.43 23.89L303.99 21.93Q303.66 21.77 303.47 21.47Q303.29 21.16 303.29 20.75ZM319.97 22L317.64 22L317.64 13.60L319.60 13.60L323.31 18.07L323.31 13.60L325.63 13.60L325.63 22L323.68 22L319.97 17.52L319.97 22ZM337.54 22L330.79 22L330.79 13.60L337.39 13.60L337.39 15.44L333.15 15.44L333.15 16.85L336.88 16.85L336.88 18.63L333.15 18.63L333.15 20.17L337.54 20.17L337.54 22ZM344.20 22L341.48 22L344.54 17.75L341.61 13.60L344.29 13.60L345.97 16.02L347.62 13.60L350.20 13.60L347.27 17.66L350.39 22L347.65 22L345.91 19.40L344.20 22ZM356.46 15.48L353.88 15.48L353.88 13.60L361.40 13.60L361.40 15.48L358.84 15.48L358.84 22L356.46 22L356.46 15.48ZM365.26 20.75L365.26 20.75Q365.26 20.15 365.65 19.78Q366.04 19.41 366.63 19.41L366.63 19.41Q367.23 19.41 367.61 19.78Q368.00 20.15 368.00 20.75L368.00 20.75Q368.00 21.34 367.61 21.72Q367.22 22.11 366.63 22.11L366.63 22.11Q366.05 22.11 365.66 21.72Q365.26 21.34 365.26 20.75ZM371.58 20.93L371.58 20.93L372.87 19.40Q373.54 20.27 374.31 20.27L374.31 20.27Q374.32 20.27 374.32 20.27L374.32 20.27Q374.84 20.27 375.11 19.96Q375.38 19.65 375.38 19.05L375.38 19.05L375.38 15.44L372.48 15.44L372.48 13.60L377.73 13.60L377.73 18.91Q377.73 20.54 376.91 21.36Q376.09 22.17 374.49 22.17L374.49 22.17Q373.57 22.17 372.81 21.85Q372.06 21.53 371.58 20.93ZM382.23 21.24L382.23 21.24L383.01 19.49Q383.58 19.86 384.32 20.09Q385.06 20.32 385.79 20.32L385.79 20.32Q387.15 20.32 387.16 19.64L387.16 19.64Q387.16 19.28 386.77 19.11Q386.38 18.93 385.51 18.74L385.51 18.74Q384.56 18.53 383.92 18.30Q383.29 18.06 382.83 17.55Q382.38 17.03 382.38 16.16L382.38 16.16Q382.38 15.39 382.80 14.77Q383.22 14.15 384.05 13.79Q384.89 13.43 386.10 13.43L386.10 13.43Q386.92 13.43 387.73 13.62Q388.53 13.80 389.15 14.17L389.15 14.17L388.42 15.93Q387.21 15.28 386.08 15.28L386.08 15.28Q385.37 15.28 385.05 15.49Q384.73 15.70 384.73 16.04L384.73 16.04Q384.73 16.37 385.11 16.54Q385.50 16.71 386.35 16.89L386.35 16.89Q387.31 17.10 387.94 17.33Q388.57 17.56 389.03 18.07Q389.49 18.58 389.49 19.46L389.49 19.46Q389.49 20.21 389.08 20.83Q388.66 21.44 387.82 21.80Q386.97 22.17 385.77 22.17L385.77 22.17Q384.75 22.17 383.79 21.92Q382.83 21.67 382.23 21.24ZM402.46 22L400.04 22L403.74 13.60L406.09 13.60L409.80 22L407.34 22L406.67 20.37L403.12 20.37L402.46 22ZM404.90 15.93L403.81 18.61L405.98 18.61L404.90 15.93ZM416.29 22L413.96 22L413.96 13.60L415.91 13.60L419.62 18.07L419.62 13.60L421.95 13.60L421.95 22L420.00 22L416.29 17.52L416.29 22ZM431.08 22L427.11 22L427.11 13.60L431.08 13.60Q432.47 13.60 433.53 14.12Q434.60 14.63 435.19 15.58Q435.78 16.53 435.78 17.80L435.78 17.80Q435.78 19.07 435.19 20.02Q434.60 20.97 433.53 21.48Q432.47 22 431.08 22L431.08 22ZM429.49 15.50L429.49 20.10L430.99 20.10Q432.07 20.10 432.72 19.49Q433.37 18.88 433.37 17.80L433.37 17.80Q433.37 16.72 432.72 16.11Q432.07 15.50 430.99 15.50L430.99 15.50L429.49 15.50ZM449.27 15.48L446.69 15.48L446.69 13.60L454.21 13.60L454.21 15.48L451.64 15.48L451.64 22L449.27 22L449.27 15.48ZM460.00 22L457.57 22L461.28 13.60L463.63 13.60L467.34 22L464.87 22L464.21 20.37L460.66 20.37L460.00 22ZM462.44 15.93L461.35 18.61L463.52 18.61L462.44 15.93ZM473.87 22L471.50 22L471.50 13.60L473.87 13.60L473.87 22ZM485.44 22L479.05 22L479.05 13.60L481.43 13.60L481.43 20.11L485.44 20.11L485.44 22ZM491.93 22L489.21 13.60L491.66 13.60L493.35 18.96L495.12 13.60L497.31 13.60L499.00 19.01L500.76 13.60L503.03 13.60L500.31 22L497.76 22L496.16 16.89L494.48 22L491.93 22ZM509.92 22L507.54 22L507.54 13.60L509.92 13.60L509.92 22ZM517.43 22L515.10 22L515.10 13.60L517.05 13.60L520.76 18.07L520.76 13.60L523.09 13.60L523.09 22L521.14 22L517.43 17.52L517.43 22ZM532.22 22L528.25 22L528.25 13.60L532.22 13.60Q533.61 13.60 534.67 14.12Q535.74 14.63 536.33 15.58Q536.92 16.53 536.92 17.80L536.92 17.80Q536.92 19.07 536.33 20.02Q535.74 20.97 534.67 21.48Q533.61 22 532.22 22L532.22 22ZM530.63 15.50L530.63 20.10L532.13 20.10Q533.21 20.10 533.86 19.49Q534.51 18.88 534.51 17.80L534.51 17.80Q534.51 16.72 533.86 16.11Q533.21 15.50 532.13 15.50L532.13 15.50L530.63 15.50ZM541.22 17.80L541.22 17.80Q541.22 16.54 541.81 15.54Q542.41 14.55 543.46 13.99Q544.52 13.43 545.83 13.43L545.83 13.43Q546.99 13.43 547.91 13.84Q548.83 14.25 549.45 15.02L549.45 15.02L547.94 16.39Q547.12 15.40 545.96 15.40L545.96 15.40Q545.27 15.40 544.74 15.70Q544.20 16 543.91 16.54Q543.61 17.09 543.61 17.80L543.61 17.80Q543.61 18.51 543.91 19.05Q544.20 19.60 544.74 19.90Q545.27 20.20 545.96 20.20L545.96 20.20Q547.12 20.20 547.94 19.22L547.94 19.22L549.45 20.58Q548.84 21.35 547.91 21.76Q546.99 22.17 545.83 22.17L545.83 22.17Q544.52 22.17 543.46 21.61Q542.41 21.05 541.81 20.05Q541.22 19.06 541.22 17.80ZM553.40 21.24L553.40 21.24L554.18 19.49Q554.74 19.86 555.48 20.09Q556.23 20.32 556.95 20.32L556.95 20.32Q558.31 20.32 558.32 19.64L558.32 19.64Q558.32 19.28 557.93 19.11Q557.54 18.93 556.67 18.74L556.67 18.74Q555.72 18.53 555.09 18.30Q554.45 18.06 554.00 17.55Q553.54 17.03 553.54 16.16L553.54 16.16Q553.54 15.39 553.96 14.77Q554.38 14.15 555.22 13.79Q556.05 13.43 557.26 13.43L557.26 13.43Q558.09 13.43 558.89 13.62Q559.70 13.80 560.31 14.17L560.31 14.17L559.58 15.93Q558.38 15.28 557.25 15.28L557.25 15.28Q556.54 15.28 556.22 15.49Q555.89 15.70 555.89 16.04L555.89 16.04Q555.89 16.37 556.28 16.54Q556.66 16.71 557.51 16.89L557.51 16.89Q558.47 17.10 559.10 17.33Q559.73 17.56 560.20 18.07Q560.66 18.58 560.66 19.46L560.66 19.46Q560.66 20.21 560.24 20.83Q559.82 21.44 558.98 21.80Q558.14 22.17 556.94 22.17L556.94 22.17Q555.92 22.17 554.96 21.92Q554.00 21.67 553.40 21.24ZM564.65 21.24L564.65 21.24L565.43 19.49Q565.99 19.86 566.73 20.09Q567.48 20.32 568.20 20.32L568.20 20.32Q569.56 20.32 569.57 19.64L569.57 19.64Q569.57 19.28 569.18 19.11Q568.79 18.93 567.92 18.74L567.92 18.74Q566.97 18.53 566.34 18.30Q565.70 18.06 565.25 17.55Q564.79 17.03 564.79 16.16L564.79 16.16Q564.79 15.39 565.21 14.77Q565.63 14.15 566.47 13.79Q567.30 13.43 568.51 13.43L568.51 13.43Q569.34 13.43 570.14 13.62Q570.95 13.80 571.56 14.17L571.56 14.17L570.83 15.93Q569.63 15.28 568.50 15.28L568.50 15.28Q567.79 15.28 567.47 15.49Q567.14 15.70 567.14 16.04L567.14 16.04Q567.14 16.37 567.53 16.54Q567.91 16.71 568.76 16.89L568.76 16.89Q569.72 17.10 570.35 17.33Q570.98 17.56 571.45 18.07Q571.91 18.58 571.91 19.46L571.91 19.46Q571.91 20.21 571.49 20.83Q571.07 21.44 570.23 21.80Q569.39 22.17 568.19 22.17L568.19 22.17Q567.17 22.17 566.21 21.92Q565.25 21.67 564.65 21.24Z" fill="#FFFFFF"/></svg>